<svg xmlns="http://www.w3.org/2000/svg" viewBox="0 0 538.28 167.49"><g id="Layer_2" data-name="Layer 2"><g id="Layer_1-2" data-name="Layer 1"><path d="M83.74,0a83.75,83.75,0,1,0,83.75,83.74A83.74,83.74,0,0,0,83.74,0Zm38.41,120.79a5.22,5.22,0,0,1-7.18,1.73c-19.66-12-44.42-14.73-73.57-8.07a5.22,5.22,0,0,1-2.32-10.17c31.9-7.3,59.26-4.16,81.34,9.33A5.23,5.23,0,0,1,122.15,120.79ZM132.4,98a6.53,6.53,0,0,1-9,2.15C100.91,86.3,66.59,82.29,40,90.38a6.53,6.53,0,1,1-3.8-12.5C66.59,68.65,104.4,73.12,130.25,89A6.53,6.53,0,0,1,132.4,98Zm.88-23.74c-27-16-71.52-17.5-97.29-9.68a7.83,7.83,0,1,1-4.55-15c29.58-9,78.76-7.25,109.84,11.2a7.83,7.83,0,0,1-8,13.47Z" style="fill:#fff"/><path d="M227.84,77.31c-14.46-3.45-17-5.87-17-11,0-4.81,4.53-8,11.25-8,6.52,0,13,2.46,19.77,7.51a.94.94,0,0,0,.71.17.92.92,0,0,0,.63-.38l7.06-10a1,1,0,0,0-.18-1.29,42.7,42.7,0,0,0-27.77-9.62c-15.62,0-26.52,9.37-26.52,22.77,0,14.38,9.41,19.47,25.66,23.4,13.84,3.18,16.17,5.85,16.17,10.63,0,5.28-4.72,8.57-12.32,8.57-8.44,0-15.32-2.84-23-9.51a1.05,1.05,0,0,0-.7-.23,1,1,0,0,0-.65.34L193,110.15a.94.94,0,0,0,.09,1.31,47.19,47.19,0,0,0,31.87,12.23c16.83,0,27.7-9.2,27.7-23.42C252.64,88.24,245.45,81.59,227.84,77.31Z" style="fill:#fff"/><path d="M290.7,63.05c-7.29,0-13.28,2.87-18.21,8.76V65.18a1,1,0,0,0-.94-1H258.6a1,1,0,0,0-1,1v73.6a1,1,0,0,0,1,.95h12.95a.94.94,0,0,0,.94-.95V115.55a23.26,23.26,0,0,0,18.21,8.24c13.55,0,27.26-10.43,27.26-30.37S304.25,63.05,290.7,63.05Zm12.21,30.37c0,10.16-6.25,17.24-15.21,17.24s-15.53-7.41-15.53-17.24,6.68-17.23,15.53-17.23S302.91,83.43,302.91,93.42Z" style="fill:#fff"/><path d="M353.12,63.05C335.67,63.05,322,76.49,322,93.64c0,17,13.58,30.27,30.91,30.27,17.51,0,31.22-13.4,31.22-30.49S370.51,63.05,353.12,63.05Zm0,47.72c-9.28,0-16.28-7.46-16.28-17.35s6.76-17.13,16.07-17.13,16.38,7.46,16.38,17.35S362.49,110.77,353.12,110.77Z" style="fill:#fff"/><path d="M421.39,64.23H407.14V49.67a.94.94,0,0,0-.94-1H393.25a1,1,0,0,0-.95,1V64.23h-6.22a1,1,0,0,0-.94,1V76.31a1,1,0,0,0,.94,1h6.22v28.79c0,11.63,5.8,17.53,17.22,17.53a23.74,23.74,0,0,0,12.13-3,1,1,0,0,0,.47-.83V109.15a.95.95,0,0,0-1.37-.85,16.35,16.35,0,0,1-7.6,1.83c-4.15,0-6-1.88-6-6.11V77.26h14.25a1,1,0,0,0,.95-1V65.18A1,1,0,0,0,421.39,64.23Z" style="fill:#fff"/><path d="M471,64.29V62.5c0-5.26,2-7.61,6.54-7.61a21.88,21.88,0,0,1,7.3,1.35,1,1,0,0,0,.85-.13,1,1,0,0,0,.39-.77V44.43a1,1,0,0,0-.67-.91A35.23,35.23,0,0,0,474.68,42c-12,0-18.28,6.73-18.28,19.47v2.74h-6.22a1,1,0,0,0-.95.95V76.31a1,1,0,0,0,.95,1h6.22v44.41a1,1,0,0,0,1,1h12.94a1,1,0,0,0,.95-1V77.26h12.09l18.52,44.4c-2.1,4.66-4.17,5.59-7,5.59a14.86,14.86,0,0,1-7.14-2,1.05,1.05,0,0,0-.76-.07,1,1,0,0,0-.56.51L482,135.29a.94.94,0,0,0,.4,1.23,27.28,27.28,0,0,0,13.83,3.54c9.56,0,14.84-4.46,19.5-16.44l22.46-58a.92.92,0,0,0-.1-.88.94.94,0,0,0-.78-.41H523.86a1,1,0,0,0-.9.64l-13.81,39.43L494,64.9a.94.94,0,0,0-.88-.61Z" style="fill:#fff"/><rect x="428.36" y="64.23" width="14.84" height="58.38" rx="0.95" style="fill:#fff"/><path d="M435.85,38.51a9.29,9.29,0,1,0,9.28,9.29A9.3,9.3,0,0,0,435.85,38.51Z" style="fill:#fff"/></g></g></svg>